# xmcd
#
# Track frame offsets: 
#        183
#        17328
#        37870
#        54940
#        72925
#        85835
#        100478
#        117620
#        134170
#        154933
#
# Disc length: 2241 seconds
#
# Revision: 1
# Processed by: cddbd v1.5.2PL0 Copyright (c) Steve Scherf et al.
# Submitted via: ExactAudioCopy v0.99pb5
#
DISCID=8208bf0a
DTITLE=Atlantis - Get On Board
DYEAR=1975
DGENRE=Progressive Rock
TTITLE0=Get On Boad
TTITLE1=Change My Mind
TTITLE2=The Man
TTITLE3=Let Me Stay For A White
TTITLE4=Keep The Music Going On
TTITLE5=Chartbuster
TTITLE6=The Captain And The Ship
TTITLE7=If I Couldn`t Sing
TTITLE8=Tried To Climb A Mountain
TTITLE9=Mainline Florida
EXTD=YEAR: 1975
EXTT0=
EXTT1=
EXTT2=
EXTT3=
EXTT4=
EXTT5=
EXTT6=
EXTT7=
EXTT8=
EXTT9=
PLAYORDER=
